<svg xmlns="http://www.w3.org/2000/svg" width="32" height="32" viewBox="0 0 32 32"><defs><style>.a,.e{fill:none;}.a,.b,.c{stroke:#54b3d6;}.a{stroke-width:3px;}.b,.c{fill:#54b3d6;stroke-linejoin:round;}.b{stroke-linecap:round;}.d{stroke:none;}</style></defs><g class="a"><rect class="d" width="32" height="32" rx="12"/><rect class="e" x="1.5" y="1.5" width="29" height="29" rx="10.5"/></g><g class="b" transform="translate(7 8)"><rect class="d" width="5" height="16"/><rect class="e" x="0.5" y="0.5" width="4" height="15"/></g><path class="c" d="M-2061.515,1513.508v-10.2h4.153v1.377a4.686,4.686,0,0,1,2.994-1.377,2.88,2.88,0,0,1,2.86,1.971c.423.985.191,8.232.191,8.232h-3.333s.13-4.611,0-5.194a1.5,1.5,0,0,0-1.4-1.151,1.307,1.307,0,0,0-1.312,1.151c-.149.727,0,5.194,0,5.194Z" transform="translate(2076 -1490)"/></svg>