<svg xmlns="http://www.w3.org/2000/svg" width="35.492" height="35.492" viewBox="0 0 35.492 35.492"><defs><style>.a,.b,.c,.e{fill:none;}.a,.b,.c{stroke:#54b3d6;}.a{stroke-width:3px;}.b{stroke-width:2px;}.c{stroke-width:1.5px;}.d{stroke:none;}</style></defs><g transform="translate(-1032 -1287.508)"><g transform="translate(-16.1 -91)"><g transform="translate(-434.9 -216.492)"><g class="a" transform="translate(1491.604 1603.604)"><circle class="d" cx="9.142" cy="9.142" r="9.142"/><circle class="e" cx="9.142" cy="9.142" r="7.642"/></g><g class="b" transform="translate(1487.763 1599.763)"><circle class="d" cx="12.983" cy="12.983" r="12.983"/><circle class="e" cx="12.983" cy="12.983" r="11.983"/></g><g class="a" transform="translate(1483 1595)"><circle class="d" cx="17.746" cy="17.746" r="17.746"/><circle class="e" cx="17.746" cy="17.746" r="16.246"/></g><line class="c" x1="8.297" y2="2.612" transform="translate(1509.504 1607.983)"/><line class="c" x1="2.919" y1="2.458" transform="translate(1507.814 1618.431)"/><line class="c" y1="7.682" x2="3.995" transform="translate(1492.757 1620.889)"/><line class="c" y2="8.604" transform="translate(1500.746 1595.077)"/><line class="c" x1="3.995" y2="7.682" transform="translate(1504.587 1596.921)"/><line class="c" x1="1.076" y2="4.609" transform="translate(1503.973 1595.691)"/><line class="c" x1="6.872" y2="6.697" transform="translate(1507.087 1601.069)"/><line class="c" x1="2.766" y2="3.841" transform="translate(1508.736 1598.764)"/><line class="c" x1="3.65" y2="1.825" transform="translate(1511.649 1605.029)"/><line class="c" x1="4.84" transform="translate(1513.652 1612.746)"/><line class="c" x1="8.889" y1="2.895" transform="translate(1508.912 1614.153)"/><line class="c" x1="3.687" y1="3.073" transform="translate(1510.733 1620.889)"/><line class="c" x1="4.922" y1="2.626" transform="translate(1511.649 1617.803)"/><line class="c" x1="4.562" y1="7.299" transform="translate(1504.35 1620.54)"/><line class="c" y1="8.212" transform="translate(1500.701 1621.452)"/><line class="c" y1="4.853" x2="1.366" transform="translate(1496.598 1625.102)"/><line class="c" x1="6.76" y2="5.378" transform="translate(1486.764 1618.277)"/><line class="c" x1="3.227" y2="3.534" transform="translate(1489.223 1622.579)"/><line class="c" x1="8.951" y2="2.588" transform="translate(1483.538 1614.153)"/><line class="c" x1="4.302" y2="1.997" transform="translate(1484.767 1618.124)"/><line class="c" x1="4.763" transform="translate(1483.077 1612.746)"/><line class="c" x1="8.951" y1="2.818" transform="translate(1483.538 1608.598)"/><line class="c" x1="7.242" y1="6.236" transform="translate(1487.072 1601.53)"/><line class="c" x1="4.148" y1="2.151" transform="translate(1485.074 1604.757)"/><line class="c" x1="3.841" y1="7.682" transform="translate(1492.91 1596.921)"/><line class="c" x1="3.073" y1="3.687" transform="translate(1489.837 1598.764)"/><line class="c" x1="1.076" y1="4.609" transform="translate(1496.905 1595.538)"/><line class="c" x1="1.825" y1="5.474" transform="translate(1503.438 1624.189)"/><line class="c" x1="2.919" y1="3.841" transform="translate(1508.736 1622.887)"/></g></g></g></svg>